<svg width="362" height="49" viewBox="0 0 362 49" fill="none" xmlns="http://www.w3.org/2000/svg">
<path d="M162.658 48.6335H6.99528C3.57227 48.6335 0.768784 45.8964 0.768784 42.5544V6.07919C0.768784 2.73716 3.57227 -1.18451e-06 6.99528 -1.18451e-06H162.658C166.081 -1.18451e-06 168.884 2.73716 168.884 6.07919V42.5544C168.884 45.8964 166.081 48.6335 162.658 48.6335Z" fill="black"/>
<path d="M162.658 0.974188C165.541 0.974188 167.886 3.26453 167.886 6.07919V42.5544C167.886 45.369 165.541 47.6594 162.658 47.6594H6.99528C4.11241 47.6594 1.76658 45.369 1.76658 42.5544V6.07919C1.76658 3.26453 4.11241 0.974188 6.99528 0.974188H162.658ZM162.658 -1.18451e-06H6.99528C3.57227 -1.18451e-06 0.768784 2.73716 0.768784 6.07919V42.5544C0.768784 45.8964 3.57227 48.6335 6.99528 48.6335H162.658C166.081 48.6335 168.884 45.8964 168.884 42.5544V6.07919C168.884 2.73716 166.081 -1.18451e-06 162.658 -1.18451e-06Z" fill="#A6A6A6"/>
<path d="M59.8176 12.4551C59.8176 13.4703 59.5063 14.2834 58.893 14.8898C58.1879 15.6086 57.2695 15.9704 56.144 15.9704C55.0684 15.9704 54.15 15.6026 53.3966 14.8776C52.6416 14.142 52.2649 13.2393 52.2649 12.1587C52.2649 11.0781 52.6416 10.1754 53.3966 9.44586C54.15 8.71484 55.0684 8.34705 56.144 8.34705C56.6795 8.34705 57.1901 8.45495 57.6773 8.65556C58.163 8.8577 58.5583 9.13126 58.8448 9.46866L58.1941 10.11C57.6944 9.53401 57.0142 9.24981 56.144 9.24981C55.3595 9.24981 54.6792 9.51729 54.1017 10.0568C53.5304 10.5979 53.244 11.2985 53.244 12.1587C53.244 13.0189 53.5304 13.7256 54.1017 14.2667C54.6792 14.8001 55.3595 15.0737 56.144 15.0737C56.9768 15.0737 57.6773 14.8001 58.2299 14.2606C58.5941 13.9034 58.8012 13.411 58.8557 12.7818H56.144V11.9034H59.7616C59.8052 12.0933 59.8176 12.2772 59.8176 12.4551Z" fill="white" stroke="white" stroke-width="0.16" stroke-miterlimit="10"/>
<path d="M65.555 9.40859H62.1569V11.7187H65.2203V12.5971H62.1569V14.9072H65.555V15.8024H61.1949V8.51343H65.555V9.40859Z" fill="white" stroke="white" stroke-width="0.16" stroke-miterlimit="10"/>
<path d="M69.6091 15.8024H68.6471V9.40859H66.5628V8.51343H71.695V9.40859H69.6091V15.8024Z" fill="white" stroke="white" stroke-width="0.16" stroke-miterlimit="10"/>
<path d="M75.4065 15.8024V8.51343H76.3669V15.8024H75.4065Z" fill="white" stroke="white" stroke-width="0.16" stroke-miterlimit="10"/>
<path d="M80.6253 15.8027H79.6711V9.40895H77.579V8.51379H82.7174V9.40895H80.6253V15.8027Z" fill="white" stroke="white" stroke-width="0.16" stroke-miterlimit="10"/>
<path d="M92.4326 14.8655C91.6964 15.6026 90.7842 15.9704 89.6961 15.9704C88.6018 15.9704 87.6896 15.6026 86.9533 14.8655C86.2186 14.1299 85.8528 13.2271 85.8528 12.1587C85.8528 11.0903 86.2186 10.1875 86.9533 9.45194C87.6896 8.71484 88.6018 8.34705 89.6961 8.34705C90.778 8.34705 91.6901 8.71484 92.4264 9.45802C93.1674 10.1997 93.5332 11.0964 93.5332 12.1587C93.5332 13.2271 93.1674 14.1299 92.4326 14.8655ZM87.6647 14.2545C88.2189 14.8001 88.8929 15.0737 89.6961 15.0737C90.4931 15.0737 91.1733 14.8001 91.7213 14.2545C92.2739 13.7089 92.5541 13.0083 92.5541 12.1587C92.5541 11.3091 92.2739 10.6085 91.7213 10.0629C91.1733 9.51729 90.4931 9.24373 89.6961 9.24373C88.8929 9.24373 88.2189 9.51729 87.6647 10.0629C87.1121 10.6085 86.8319 11.3091 86.8319 12.1587C86.8319 13.0083 87.1121 13.7089 87.6647 14.2545Z" fill="white" stroke="white" stroke-width="0.16" stroke-miterlimit="10"/>
<path d="M94.8854 15.8024V8.51343H96.0528L99.6829 14.1823H99.7249L99.6829 12.781V8.51343H100.643V15.8024H99.6409L95.8396 9.85389H95.7975L95.8396 11.2612V15.8024H94.8854Z" fill="white" stroke="white" stroke-width="0.16" stroke-miterlimit="10"/>
<path d="M85.6163 26.4474C82.6914 26.4474 80.302 28.6207 80.302 31.6193C80.302 34.5935 82.6914 36.7896 85.6163 36.7896C88.5474 36.7896 90.9369 34.5935 90.9369 31.6193C90.9369 28.6207 88.5474 26.4474 85.6163 26.4474ZM85.6163 34.7531C84.0114 34.7531 82.6307 33.4598 82.6307 31.6193C82.6307 29.7545 84.0114 28.4839 85.6163 28.4839C87.2212 28.4839 88.6082 29.7545 88.6082 31.6193C88.6082 33.4598 87.2212 34.7531 85.6163 34.7531ZM74.021 26.4474C71.0899 26.4474 68.7067 28.6207 68.7067 31.6193C68.7067 34.5935 71.0899 36.7896 74.021 36.7896C76.9506 36.7896 79.3353 34.5935 79.3353 31.6193C79.3353 28.6207 76.9506 26.4474 74.021 26.4474ZM74.021 34.7531C72.4146 34.7531 71.0292 33.4598 71.0292 31.6193C71.0292 29.7545 72.4146 28.4839 74.021 28.4839C75.6259 28.4839 77.0066 29.7545 77.0066 31.6193C77.0066 33.4598 75.6259 34.7531 74.021 34.7531ZM60.2231 28.0326V30.2302H65.5981C65.4409 31.4582 65.0206 32.3609 64.3762 32.9901C63.5916 33.75 62.3697 34.5935 60.2231 34.5935C56.9153 34.5935 54.325 31.9871 54.325 28.7575C54.325 25.5279 56.9153 22.9215 60.2231 22.9215C62.0117 22.9215 63.313 23.6039 64.2734 24.4884L65.8596 22.9397C64.5163 21.6874 62.7293 20.7254 60.2231 20.7254C55.6871 20.7254 51.8749 24.3288 51.8749 28.7575C51.8749 33.1862 55.6871 36.7896 60.2231 36.7896C62.6748 36.7896 64.5163 36.0054 65.9639 34.5343C67.4474 33.0859 67.9097 31.0494 67.9097 29.4049C67.9097 28.8943 67.8661 28.4247 67.7883 28.0326H60.2231ZM116.645 29.7363C116.207 28.5797 114.858 26.4474 112.109 26.4474C109.384 26.4474 107.116 28.5432 107.116 31.6193C107.116 34.516 109.361 36.7896 112.37 36.7896C114.803 36.7896 116.207 35.3413 116.785 34.4978L114.979 33.323C114.377 34.1832 113.556 34.7531 112.37 34.7531C111.192 34.7531 110.346 34.2257 109.805 33.1862L116.889 30.3244L116.645 29.7363ZM109.422 31.4582C109.361 29.4642 111.008 28.4429 112.188 28.4429C113.113 28.4429 113.897 28.8943 114.159 29.5402L109.422 31.4582ZM103.664 36.475H105.993V21.2771H103.664V36.475ZM99.8501 27.5994H99.7723C99.2492 26.9945 98.2514 26.4474 96.9875 26.4474C94.335 26.4474 91.9098 28.721 91.9098 31.636C91.9098 34.5343 94.335 36.7896 96.9875 36.7896C98.2514 36.7896 99.2492 36.2379 99.7723 35.6148H99.8501V36.3565C99.8501 38.3338 98.7682 39.3961 97.0233 39.3961C95.6005 39.3961 94.7179 38.393 94.3537 37.5495L92.3285 38.3748C92.9122 39.7456 94.4579 41.4326 97.0233 41.4326C99.7536 41.4326 102.057 39.8642 102.057 36.048V26.762H99.8501V27.5994ZM97.1867 34.7531C95.5818 34.7531 94.2385 33.4415 94.2385 31.636C94.2385 29.8138 95.5818 28.4839 97.1867 28.4839C98.7682 28.4839 100.015 29.8138 100.015 31.636C100.015 33.4415 98.7682 34.7531 97.1867 34.7531ZM127.547 21.2771H121.978V36.475H124.3V30.7165H127.547C130.126 30.7165 132.656 28.8943 132.656 25.996C132.656 23.0993 130.12 21.2771 127.547 21.2771ZM127.608 28.6025H124.3V23.3911H127.608C129.342 23.3911 130.332 24.7969 130.332 25.996C130.332 27.1724 129.342 28.6025 127.608 28.6025ZM141.965 26.4185C140.287 26.4185 138.542 27.142 137.824 28.7453L139.885 29.5888C140.329 28.7453 141.144 28.4718 142.007 28.4718C143.211 28.4718 144.433 29.1785 144.452 30.4262V30.5858C144.032 30.3487 143.132 29.9977 142.025 29.9977C139.806 29.9977 137.544 31.1907 137.544 33.4172C137.544 35.4537 139.362 36.7653 141.406 36.7653C142.969 36.7653 143.831 36.0768 144.373 35.2759H144.452V36.4507H146.695V30.6208C146.695 27.9262 144.634 26.4185 141.965 26.4185ZM141.684 34.747C140.925 34.747 139.866 34.3792 139.866 33.4598C139.866 32.2834 141.186 31.8321 142.329 31.8321C143.352 31.8321 143.831 32.0524 144.452 32.3427C144.27 33.75 143.029 34.747 141.684 34.747ZM154.867 26.7514L152.198 33.3397H152.118L149.359 26.7514H146.854L151.001 35.9583L148.635 41.0815H151.061L157.451 26.7514H154.867ZM133.932 36.475H136.261V21.2771H133.932V36.475Z" fill="white"/>
<path d="M13.764 9.16577C13.3982 9.53964 13.1865 10.1217 13.1865 10.8755V37.7638C13.1865 38.5176 13.3982 39.0997 13.764 39.4736L13.8543 39.5557L29.2867 24.4945V24.1388L13.8543 9.07762L13.764 9.16577Z" fill="url(#paint0_linear_20_99)"/>
<path d="M34.4246 29.5172L29.2862 24.4943V24.1386L34.4308 19.1157L34.546 19.1811L40.6387 22.5657C42.3774 23.5262 42.3774 25.1068 40.6387 26.0733L34.546 29.4519L34.4246 29.5172Z" fill="url(#paint1_linear_20_99)"/>
<path d="M34.5452 29.4519L29.2854 24.3165L13.7627 39.4735C14.3402 40.0662 15.282 40.1376 16.3529 39.5449L34.5452 29.4519Z" fill="url(#paint2_linear_20_99)"/>
<path d="M34.5452 19.1814L16.3529 9.0884C15.282 8.50175 14.3402 8.57318 13.7627 9.1659L29.2854 24.3168L34.5452 19.1814Z" fill="url(#paint3_linear_20_99)"/>
<path d="M360.295 43.0249C360.295 45.6167 358.152 47.716 355.501 47.716H198.619C195.969 47.716 193.819 45.6167 193.819 43.0249V5.61495C193.819 3.02443 195.969 0.917725 198.619 0.917725H355.5C358.152 0.917725 360.294 3.02443 360.294 5.61495L360.295 43.0249Z" fill="black"/>
<path d="M354.996 0.974188C357.883 0.974188 360.232 3.26453 360.232 6.07919V42.5544C360.232 45.369 357.883 47.6594 354.996 47.6594H199.119C196.233 47.6594 193.883 45.369 193.883 42.5544V6.07919C193.883 3.26453 196.233 0.974188 199.119 0.974188H354.996ZM354.996 -1.18451e-06H199.119C195.692 -1.18451e-06 192.884 2.73716 192.884 6.07919V42.5544C192.884 45.8964 195.692 48.6335 199.119 48.6335H354.996C358.424 48.6335 361.231 45.8964 361.231 42.5544V6.07919C361.231 2.73716 358.424 -1.18451e-06 354.996 -1.18451e-06Z" fill="#A6A6A6"/>
<path d="M230.454 24.0533C230.418 20.1346 233.745 18.2282 233.897 18.1394C232.012 15.4609 229.092 15.095 228.066 15.0658C225.613 14.8141 223.233 16.4968 221.984 16.4968C220.71 16.4968 218.785 15.0901 216.712 15.1314C214.043 15.1716 211.546 16.678 210.177 19.0173C207.351 23.787 209.459 30.7963 212.166 34.6517C213.52 36.5399 215.103 38.6482 217.174 38.574C219.201 38.4926 219.958 37.3144 222.403 37.3144C224.826 37.3144 225.537 38.574 227.649 38.5266C229.824 38.4926 231.193 36.6299 232.5 34.7247C234.065 32.5605 234.694 30.4291 234.718 30.3197C234.667 30.3027 230.495 28.75 230.454 24.0533Z" fill="white"/>
<path d="M226.463 12.5295C227.553 11.2006 228.299 9.39268 228.092 7.55798C226.514 7.62607 224.542 8.62184 223.406 9.92157C222.4 11.0669 221.503 12.9441 221.735 14.7095C223.507 14.8384 225.326 13.8378 226.463 12.5295Z" fill="white"/>
<path d="M259.78 38.3033H256.948L255.397 33.5506H250.005L248.527 38.3033H245.77L251.112 22.1229H254.412L259.78 38.3033ZM254.929 31.5566L253.526 27.3316C253.378 26.9 253.1 25.8835 252.69 24.2835H252.64C252.476 24.9716 252.213 25.9881 251.852 27.3316L250.474 31.5566H254.929Z" fill="white"/>
<path d="M273.518 32.3261C273.518 34.3104 272.968 35.8788 271.868 37.0302C270.883 38.0552 269.66 38.567 268.2 38.567C266.623 38.567 265.491 38.015 264.801 36.9111H264.752V43.0571H262.093V30.4768C262.093 29.2294 262.059 27.9491 261.994 26.636H264.333L264.481 28.4853H264.531C265.417 27.0919 266.763 26.3965 268.569 26.3965C269.98 26.3965 271.159 26.94 272.101 28.0281C273.047 29.1175 273.518 30.5498 273.518 32.3261ZM270.81 32.421C270.81 31.2854 270.548 30.3492 270.021 29.6124C269.447 28.844 268.675 28.4598 267.707 28.4598C267.051 28.4598 266.455 28.6737 265.922 29.0956C265.389 29.5212 265.04 30.0768 264.876 30.765C264.794 31.086 264.753 31.3486 264.753 31.5553V33.5006C264.753 34.3493 265.02 35.0654 265.553 35.6502C266.087 36.2351 266.78 36.5269 267.633 36.5269C268.635 36.5269 269.414 36.1499 269.972 35.3986C270.53 34.6459 270.81 33.6538 270.81 32.421Z" fill="white"/>
<path d="M287.282 32.3261C287.282 34.3104 286.732 35.8788 285.631 37.0302C284.647 38.0552 283.424 38.567 281.963 38.567C280.387 38.567 279.255 38.015 278.567 36.9111H278.517V43.0571H275.858V30.4768C275.858 29.2294 275.824 27.9491 275.759 26.636H278.098L278.246 28.4853H278.296C279.181 27.0919 280.527 26.3965 282.334 26.3965C283.744 26.3965 284.923 26.94 285.868 28.0281C286.809 29.1175 287.282 30.5498 287.282 32.3261ZM284.573 32.421C284.573 31.2854 284.31 30.3492 283.784 29.6124C283.209 28.844 282.44 28.4598 281.471 28.4598C280.814 28.4598 280.219 28.6737 279.685 29.0956C279.151 29.5212 278.803 30.0768 278.64 30.765C278.559 31.086 278.517 31.3486 278.517 31.5553V33.5006C278.517 34.3493 278.783 35.0654 279.315 35.6502C279.848 36.2338 280.542 36.5269 281.397 36.5269C282.399 36.5269 283.178 36.1499 283.735 35.3986C284.294 34.6459 284.573 33.6538 284.573 32.421Z" fill="white"/>
<path d="M302.671 33.7658C302.671 35.1422 302.181 36.2619 301.197 37.1264C300.116 38.0711 298.611 38.5429 296.677 38.5429C294.891 38.5429 293.459 38.2073 292.376 37.5349L292.992 35.3744C294.159 36.0625 295.44 36.4078 296.835 36.4078C297.836 36.4078 298.616 36.1866 299.176 35.7464C299.733 35.3063 300.011 34.7154 300.011 33.9786C300.011 33.322 299.782 32.7688 299.321 32.3202C298.864 31.8715 298.099 31.4545 297.032 31.0691C294.126 30.0125 292.675 28.4648 292.675 26.4295C292.675 25.0993 293.184 24.0087 294.202 23.1601C295.218 22.3102 296.572 21.8859 298.265 21.8859C299.775 21.8859 301.03 22.1424 302.031 22.6543L301.367 24.7674C300.431 24.2713 299.374 24.0233 298.19 24.0233C297.255 24.0233 296.524 24.2482 296.001 24.6957C295.558 25.0957 295.336 25.5832 295.336 26.1608C295.336 26.8003 295.589 27.3292 296.098 27.745C296.541 28.1292 297.345 28.545 298.512 28.9937C299.94 29.5542 300.989 30.2095 301.663 30.9609C302.336 31.7098 302.671 32.6473 302.671 33.7658Z" fill="white"/>
<path d="M311.461 28.5814H308.53V34.246C308.53 35.6868 309.047 36.4066 310.082 36.4066C310.557 36.4066 310.951 36.3664 311.263 36.2862L311.336 38.2546C310.812 38.4455 310.123 38.5416 309.269 38.5416C308.219 38.5416 307.398 38.2291 306.806 37.6054C306.216 36.9804 305.919 35.9324 305.919 34.46V28.579H304.173V26.6336H305.919V24.4974L308.53 23.729V26.6336H311.461V28.5814Z" fill="white"/>
<path d="M324.682 32.3737C324.682 34.167 324.156 35.6394 323.106 36.7908C322.005 37.9763 320.544 38.5672 318.722 38.5672C316.966 38.5672 315.568 37.9994 314.526 36.8638C313.483 35.7282 312.962 34.2947 312.962 32.567C312.962 30.759 313.498 29.2782 314.574 28.1268C315.648 26.9741 317.097 26.3978 318.919 26.3978C320.675 26.3978 322.087 26.9656 323.154 28.1024C324.174 29.2052 324.682 30.6289 324.682 32.3737ZM321.924 32.4576C321.924 31.3815 321.688 30.4587 321.211 29.6891C320.653 28.7578 319.856 28.2933 318.824 28.2933C317.755 28.2933 316.943 28.759 316.386 29.6891C315.908 30.4599 315.673 31.3974 315.673 32.5062C315.673 33.5822 315.908 34.505 316.386 35.2734C316.961 36.2048 317.764 36.6692 318.8 36.6692C319.815 36.6692 320.612 36.1951 321.187 35.2491C321.677 34.4649 321.924 33.5324 321.924 32.4576Z" fill="white"/>
<path d="M333.324 28.9157C333.061 28.8683 332.78 28.844 332.486 28.844C331.551 28.844 330.828 29.188 330.319 29.8774C329.876 30.4853 329.654 31.2538 329.654 32.1814V38.3032H326.997L327.022 30.3103C327.022 28.9656 326.988 27.7412 326.922 26.6372H329.238L329.335 28.8695H329.408C329.689 28.1023 330.132 27.4847 330.738 27.0214C331.33 26.6044 331.97 26.3965 332.659 26.3965C332.905 26.3965 333.127 26.4135 333.324 26.4439V28.9157Z" fill="white"/>
<path d="M345.215 31.918C345.215 32.3825 345.184 32.774 345.118 33.0937H337.142C337.173 34.2463 337.559 35.1278 338.299 35.7357C338.972 36.2792 339.841 36.5516 340.908 36.5516C342.089 36.5516 343.166 36.368 344.135 35.9996L344.552 37.799C343.42 38.2805 342.083 38.52 340.54 38.52C338.685 38.52 337.228 37.9875 336.168 36.9236C335.111 35.8598 334.581 34.4311 334.581 32.639C334.581 30.8797 335.073 29.4146 336.06 28.2462C337.092 26.9987 338.488 26.375 340.243 26.375C341.968 26.375 343.274 26.9987 344.16 28.2462C344.862 29.2371 345.215 30.4626 345.215 31.918ZM342.68 31.2456C342.698 30.4772 342.524 29.8134 342.164 29.2529C341.704 28.5319 340.997 28.172 340.045 28.172C339.176 28.172 338.469 28.5234 337.929 29.2286C337.486 29.7891 337.223 30.4614 337.142 31.2444H342.68V31.2456Z" fill="white"/>
<path d="M254.049 12.1692C254.049 13.6002 253.609 14.6775 252.73 15.4009C251.915 16.0684 250.758 16.4027 249.259 16.4027C248.516 16.4027 247.88 16.3711 247.348 16.3079V8.48884C248.042 8.37941 248.79 8.32349 249.598 8.32349C251.026 8.32349 252.102 8.62623 252.828 9.23172C253.641 9.91623 254.049 10.895 254.049 12.1692ZM252.671 12.2044C252.671 11.2768 252.419 10.5655 251.915 10.0694C251.412 9.57458 250.676 9.32655 249.707 9.32655C249.295 9.32655 248.945 9.3533 248.654 9.40923V15.3535C248.815 15.3778 249.11 15.3887 249.537 15.3887C250.537 15.3887 251.309 15.1176 251.853 14.5753C252.397 14.0331 252.671 13.2428 252.671 12.2044Z" fill="white"/>
<path d="M261.356 13.4192C261.356 14.3006 261.098 15.0229 260.582 15.5894C260.04 16.1718 259.323 16.4624 258.428 16.4624C257.565 16.4624 256.878 16.184 256.365 15.6247C255.854 15.0666 255.599 14.3627 255.599 13.514C255.599 12.6264 255.862 11.8982 256.39 11.3328C256.919 10.7674 257.63 10.4841 258.525 10.4841C259.388 10.4841 260.082 10.7626 260.607 11.3206C261.105 11.8629 261.356 12.5632 261.356 13.4192ZM260.001 13.4605C260.001 12.9316 259.883 12.4781 259.65 12.1C259.376 11.6428 258.985 11.4142 258.478 11.4142C257.953 11.4142 257.554 11.6428 257.28 12.1C257.045 12.4781 256.929 12.9389 256.929 13.4836C256.929 14.0125 257.046 14.466 257.28 14.8441C257.563 15.3013 257.957 15.5299 258.465 15.5299C258.964 15.5299 259.356 15.2976 259.638 14.832C259.88 14.4465 260.001 13.9894 260.001 13.4605Z" fill="white"/>
<path d="M271.151 10.601L269.312 16.3324H268.115L267.353 13.8436C267.159 13.2223 267.002 12.6047 266.88 11.9919H266.856C266.743 12.6217 266.586 13.2381 266.384 13.8436L265.574 16.3324H264.364L262.634 10.601H263.977L264.642 13.3256C264.802 13.97 264.935 14.584 265.041 15.1652H265.064C265.162 14.6862 265.322 14.0758 265.549 13.3378L266.384 10.6022H267.449L268.248 13.2794C268.441 13.9324 268.598 14.5609 268.719 15.1664H268.755C268.844 14.5767 268.977 13.9482 269.155 13.2794L269.868 10.6022H271.151V10.601Z" fill="white"/>
<path d="M277.926 16.3324H276.619V13.0497C276.619 12.0381 276.225 11.5323 275.434 11.5323C275.047 11.5323 274.734 11.6709 274.49 11.9493C274.25 12.2278 274.128 12.556 274.128 12.9317V16.3312H272.821V12.2387C272.821 11.7353 272.804 11.1894 272.773 10.5985H273.922L273.983 11.4946H274.019C274.171 11.2162 274.398 10.9864 274.696 10.8028C275.05 10.5888 275.447 10.4806 275.881 10.4806C276.43 10.4806 276.886 10.6532 277.249 10.9998C277.7 11.4241 277.926 12.0575 277.926 12.8989V16.3324Z" fill="white"/>
<path d="M281.531 16.3321H280.225V7.97083H281.531V16.3321Z" fill="white"/>
<path d="M289.223 13.4192C289.223 14.3006 288.965 15.0229 288.449 15.5894C287.908 16.1718 287.19 16.4624 286.295 16.4624C285.431 16.4624 284.744 16.184 284.233 15.6247C283.722 15.0666 283.466 14.3627 283.466 13.514C283.466 12.6264 283.729 11.8982 284.258 11.3328C284.787 10.7674 285.497 10.4841 286.391 10.4841C287.256 10.4841 287.948 10.7626 288.474 11.3206C288.973 11.8629 289.223 12.5632 289.223 13.4192ZM287.867 13.4605C287.867 12.9316 287.749 12.4781 287.516 12.1C287.243 11.6428 286.852 11.4142 286.345 11.4142C285.819 11.4142 285.42 11.6428 285.147 12.1C284.913 12.4781 284.797 12.9389 284.797 13.4836C284.797 14.0125 284.914 14.466 285.147 14.8441C285.43 15.3013 285.824 15.5299 286.333 15.5299C286.832 15.5299 287.222 15.2976 287.504 14.832C287.747 14.4465 287.867 13.9894 287.867 13.4605Z" fill="white"/>
<path d="M295.549 16.3323H294.375L294.278 15.6721H294.242C293.84 16.1986 293.268 16.4624 292.525 16.4624C291.97 16.4624 291.521 16.2885 291.183 15.9432C290.876 15.6296 290.723 15.2393 290.723 14.776C290.723 14.0757 291.022 13.542 291.624 13.1723C292.225 12.8027 293.071 12.6216 294.159 12.6301V12.5231C294.159 11.7681 293.753 11.3911 292.939 11.3911C292.359 11.3911 291.848 11.5334 291.406 11.8155L291.14 10.979C291.687 10.6495 292.361 10.4841 293.157 10.4841C294.693 10.4841 295.464 11.2744 295.464 12.855V14.9657C295.464 15.5384 295.493 15.9943 295.549 16.3323ZM294.192 14.3627V13.4787C292.75 13.4544 292.03 13.8398 292.03 14.6338C292.03 14.9329 292.112 15.1566 292.28 15.3061C292.449 15.4557 292.663 15.5299 292.919 15.5299C293.206 15.5299 293.474 15.4411 293.718 15.2648C293.964 15.0873 294.115 14.8624 294.171 14.5864C294.184 14.5244 294.192 14.449 294.192 14.3627Z" fill="white"/>
<path d="M302.976 16.3321H301.816L301.755 15.4118H301.719C301.349 16.1121 300.718 16.4622 299.831 16.4622C299.123 16.4622 298.533 16.1911 298.065 15.6488C297.598 15.1066 297.365 14.4026 297.365 13.5382C297.365 12.6105 297.618 11.8591 298.127 11.2852C298.619 10.7502 299.223 10.4827 299.941 10.4827C300.73 10.4827 301.283 10.7417 301.597 11.2609H301.622V7.97083H302.93V14.788C302.93 15.3461 302.945 15.8604 302.976 16.3321ZM301.622 13.9151V12.9594C301.622 12.7941 301.609 12.6603 301.586 12.5582C301.512 12.2518 301.354 11.994 301.113 11.7861C300.87 11.5782 300.577 11.4737 300.239 11.4737C299.751 11.4737 299.37 11.6621 299.089 12.0402C298.811 12.4184 298.67 12.9011 298.67 13.4907C298.67 14.0573 298.804 14.5169 299.072 14.8707C299.355 15.2476 299.736 15.4361 300.214 15.4361C300.643 15.4361 300.986 15.2792 301.247 14.9643C301.498 14.6737 301.622 14.3236 301.622 13.9151Z" fill="white"/>
<path d="M314.152 13.4192C314.152 14.3006 313.894 15.0229 313.378 15.5894C312.836 16.1718 312.121 16.4624 311.224 16.4624C310.362 16.4624 309.675 16.184 309.161 15.6247C308.65 15.0666 308.395 14.3627 308.395 13.514C308.395 12.6264 308.658 11.8982 309.186 11.3328C309.715 10.7674 310.426 10.4841 311.323 10.4841C312.184 10.4841 312.879 10.7626 313.403 11.3206C313.901 11.8629 314.152 12.5632 314.152 13.4192ZM312.798 13.4605C312.798 12.9316 312.681 12.4781 312.447 12.1C312.172 11.6428 311.783 11.4142 311.274 11.4142C310.75 11.4142 310.351 11.6428 310.076 12.1C309.841 12.4781 309.725 12.9389 309.725 13.4836C309.725 14.0125 309.842 14.466 310.076 14.8441C310.359 15.3013 310.753 15.5299 311.261 15.5299C311.76 15.5299 312.153 15.2976 312.435 14.832C312.676 14.4465 312.798 13.9894 312.798 13.4605Z" fill="white"/>
<path d="M321.18 16.3324H319.875V13.0497C319.875 12.0381 319.481 11.5323 318.689 11.5323C318.301 11.5323 317.988 11.6709 317.746 11.9493C317.504 12.2278 317.383 12.556 317.383 12.9317V16.3312H316.075V12.2387C316.075 11.7353 316.06 11.1894 316.029 10.5985H317.176L317.237 11.4946H317.273C317.427 11.2162 317.654 10.9864 317.951 10.8028C318.306 10.5888 318.701 10.4806 319.137 10.4806C319.684 10.4806 320.14 10.6532 320.503 10.9998C320.956 11.4241 321.18 12.0575 321.18 12.8989V16.3324Z" fill="white"/>
<path d="M329.975 11.5555H328.536V14.3398C328.536 15.0474 328.792 15.4012 329.298 15.4012C329.532 15.4012 329.727 15.3818 329.88 15.3417L329.914 16.3082C329.656 16.4031 329.317 16.4505 328.899 16.4505C328.383 16.4505 327.981 16.2973 327.691 15.9909C327.399 15.6845 327.254 15.169 327.254 14.4456V11.5555H326.395V10.6011H327.254V9.55062L328.535 9.17371V10.5999H329.974V11.5555H329.975Z" fill="white"/>
<path d="M336.893 16.3321H335.585V13.0737C335.585 12.0463 335.191 11.532 334.402 11.532C333.796 11.532 333.382 11.8299 333.155 12.4257C333.116 12.5509 333.093 12.7041 333.093 12.884V16.3309H331.788V7.97083H333.093V11.425H333.118C333.53 10.7964 334.12 10.4827 334.884 10.4827C335.425 10.4827 335.873 10.6554 336.228 11.0019C336.671 11.4335 336.893 12.0755 336.893 12.9242V16.3321Z" fill="white"/>
<path d="M344.03 13.1954C344.03 13.424 344.013 13.6161 343.981 13.7729H340.062C340.08 14.3395 340.267 14.7711 340.63 15.0702C340.961 15.3377 341.389 15.4715 341.913 15.4715C342.493 15.4715 343.021 15.3815 343.498 15.2003L343.702 16.0855C343.145 16.3213 342.489 16.4393 341.729 16.4393C340.819 16.4393 340.102 16.1779 339.583 15.655C339.062 15.1322 338.804 14.4307 338.804 13.5504C338.804 12.686 339.045 11.9662 339.53 11.3923C340.036 10.7795 340.721 10.4731 341.585 10.4731C342.43 10.4731 343.072 10.7795 343.506 11.3923C343.857 11.8787 344.03 12.4805 344.03 13.1954ZM342.783 12.8659C342.793 12.4878 342.707 12.1619 342.53 11.8872C342.303 11.5334 341.958 11.3558 341.49 11.3558C341.063 11.3558 340.716 11.5285 340.45 11.875C340.233 12.151 340.105 12.4805 340.062 12.8659H342.783Z" fill="white"/>
<defs>
<linearGradient id="paint0_linear_20_99" x1="27.9165" y1="38.0438" x2="7.51764" y2="17.1507" gradientUnits="userSpaceOnUse">
<stop stop-color="#00A0FF"/>
<stop offset="0.0066" stop-color="#00A1FF"/>
<stop offset="0.2601" stop-color="#00BEFF"/>
<stop offset="0.5122" stop-color="#00D2FF"/>
<stop offset="0.7604" stop-color="#00DFFF"/>
<stop offset="1" stop-color="#00E3FF"/>
</linearGradient>
<linearGradient id="paint1_linear_20_99" x1="42.9028" y1="24.3148" x2="12.7704" y2="24.3148" gradientUnits="userSpaceOnUse">
<stop stop-color="#FFE000"/>
<stop offset="0.4087" stop-color="#FFBD00"/>
<stop offset="0.7754" stop-color="#FFA500"/>
<stop offset="1" stop-color="#FF9C00"/>
</linearGradient>
<linearGradient id="paint2_linear_20_99" x1="31.6851" y1="21.5248" x2="4.02258" y2="-6.80797" gradientUnits="userSpaceOnUse">
<stop stop-color="#FF3A44"/>
<stop offset="1" stop-color="#C31162"/>
</linearGradient>
<linearGradient id="paint3_linear_20_99" x1="9.85533" y1="48.4193" x2="22.2079" y2="35.7676" gradientUnits="userSpaceOnUse">
<stop stop-color="#32A071"/>
<stop offset="0.0685" stop-color="#2DA771"/>
<stop offset="0.4762" stop-color="#15CF74"/>
<stop offset="0.8009" stop-color="#06E775"/>
<stop offset="1" stop-color="#00F076"/>
</linearGradient>
</defs>
</svg>
